<svg xmlns="http://www.w3.org/2000/svg" width="181.676" height="286.446"><path fill="#FFF" d="M14.988.003h124.939l25.149 127.733s.099 2.355 2.018 2.74v3.836l.576.385.575 2.877h1.151l-.192 2.494 3.069 4.412c.768 0 2.11 1.152 2.11 2.494 0 1.344.768 3.646 2.494 4.221.96.576.767 2.494-.384 3.453s-1.342 6.141 5.181 6.715c-1.535.768-1.535 2.494-1.535 2.494-1.343.576-6.906 5.18-6.906 5.18l-.384 9.4-3.453 6.715-.384 9.593 1.918 2.877h1.343l1.344 6.331 1.727 2.11-.384 1.727-1.919 2.494s-.768 6.332-.959 8.634c0 0-.958 2.878-.191 3.453s.576 2.877 0 3.645c1.918 1.535 6.713 6.715 6.33 13.43H44.507l-.19 5.946c-1.151.768-3.645 3.068 0 4.987s3.069 4.029 3.069 4.029 2.687 4.796 4.988 4.412c1.151.384 3.453 4.412 1.151 6.906-2.303 2.494-1.152 6.524 1.534 7.675 1.151.383 1.534 2.109-2.11 1.534l-1.343 3.837-3.069.384c0 1.151.959 4.413-4.029-.959-.575-.384-4.604 1.342 1.727 5.755l-6.906 1.727-6.715.384-9.783.384 2.877-.959c.768-1.727 1.727-2.303 3.07-.768 1.342 1.535 3.068.384 3.068.384.385-1.151 3.646-.96 4.797-.768 0 0 2.303-.96-2.11-4.221-1.343-.575-1.919-1.918-1.919-1.918 0-1.151-2.302-1.536-3.836-2.687l-.576-13.045c-1.343-6.906-6.139-9.017-9.977 7.29v8.058l-1.15 3.453c-1.918-3.262-3.837-4.797-12.278-5.372L0 188.029 17.982 6.951l-3.077-3.737V0l.083.003z"/></svg>